# xmcd CD database file generated by OrangeCD 6.4
#
# Track frame offsets:
#	150
#	18040
#	37476
#	60192
#	83978
#	103181
#	131811
#	151247
#	166545
#	186464
#	208249
#
# Disc length: 3042 seconds
#
# Revision: 0
# Processed by: cddbd v1.5.2PL0 Copyright (c) Steve Scherf et al.
# Submitted via: OrangeCD 6.4
#
DISCID=910be00b
DTITLE=Jimmy "T99" Nelson - The Legend
DYEAR=1900
DGENRE=
TTITLE0=The Devil Sending up a Blessing to you
TTITLE1=Run Joe
TTITLE2=Help Me
TTITLE3=Sleepy Time Down South rev
TTITLE4=My Country Woman
TTITLE5=My Woman
TTITLE6=I'm Sick and Tired of You
TTITLE7=One Step at a Time
TTITLE8=Be knowing What I got to Do
TTITLE9=Sunrise Blues
TTITLE10=I'm Still in Love With You
EXTD=
EXTT0=
EXTT1=
EXTT2=
EXTT3=
EXTT4=
EXTT5=
EXTT6=
EXTT7=
EXTT8=
EXTT9=
EXTT10=
PLAYORDER=
